<?xml version="1.0" encoding="utf-8"?>
<!-- Generator: Adobe Illustrator 23.0.3, SVG Export Plug-In . SVG Version: 6.00 Build 0)  -->
<svg version="1.1" id="Layer_1" xmlns="http://www.w3.org/2000/svg" xmlns:xlink="http://www.w3.org/1999/xlink" x="0px" y="0px"
	 viewBox="0 0 792 612" style="enable-background:new 0 0 792 612;" xml:space="preserve">
<style type="text/css">
	.st0{fill:#FFFFFF;stroke:#231F20;stroke-miterlimit:10;}
</style>
<path class="st0" d="M188.06,107.94C119.33,120.37,34.3,264.71,101,364.88c46.62,70.02,152.26,95.76,240.47,47.06
	c198.96-157.91,240.5-209.45,232-222.59c-10.62-16.42-88.08,44.51-189.18,24.94C273.57,192.86,248.69,96.98,188.06,107.94z"/>
<path class="st0" d="M70.08,245.82c83.12,141.24,115.88,188.31,120.67,190.79c4.79,2.47,195-36.34,195-36.34
	s31.97-218.87,27.17-218.87S81.27,168.18,81.27,168.18l-11.19,72.68l448.33-21.46l-38.35,175.09L151.6,453.95L70.08,245.82z"/>
<path class="st0" d="M583.58,81.65"/>
<path class="st0" d="M190.03,287.19c-30.73-19.85-61.01-13.74-63.47-26.58c-2.53-13.22,27.14-32.46,53.15-41.69
	c68.77-24.41,171.81-0.06,181.63,50.03c9.15,46.65-59.16,116.17-107.84,104.76C224.79,366.97,234.58,315.96,190.03,287.19z"/>
<path class="st0" d="M378.65,260.88"/>
</svg>
